<?xml version="1.0" encoding="utf-8"?><!DOCTYPE svg PUBLIC "-//W3C//DTD SVG 1.1//EN" "http://www.w3.org/Graphics/SVG/1.1/DTD/svg11.dtd"><svg width="408" height="408" viewBox="0 0 408 408" xmlns="http://www.w3.org/2000/svg" xmlns:xlink="http://www.w3.org/1999/xlink"><svg width="102" height="102" viewBox="-1 -1 102 102" id="clear-day" x="102" xmlns="http://www.w3.org/2000/svg"><path fill-rule="evenodd" clip-rule="evenodd" d="M71.997 51.999h-3.998a2 2 0 1 1 0-3.999h3.998a2 2 0 0 1 0 3.999zm-7.855-13.311a2 2 0 1 1-2.828-2.828l2.828-2.828a2 2 0 1 1 2.828 2.828l-2.828 2.828zm-14.141 23.31c-6.627 0-12-5.372-12-11.998 0-6.627 5.372-11.999 12-11.999 6.627 0 11.998 5.372 11.998 11.999 0 6.626-5.371 11.998-11.998 11.998zm0-19.997A8 8 0 1 0 50 58a8 8 0 0 0 .001-15.999zm0-7.999a2 2 0 0 1-2-2v-3.999a2 2 0 0 1 4 0v3.999c0 1.104-.897 2-2 2zM35.86 38.688l-2.828-2.828a2 2 0 1 1 2.828-2.828l2.828 2.828a2 2 0 1 1-2.828 2.828zM34.002 50a2 2 0 0 1-2 1.999h-4a1.999 1.999 0 0 1 0-3.999h4a2 2 0 0 1 2 2zm1.858 11.312a2 2 0 1 1 2.828 2.828l-2.828 2.828a2 2 0 1 1-2.828-2.828l2.828-2.828zm14.141 4.686a2 2 0 0 1 2 1.999v4a2 2 0 0 1-4 0v-4a2 2 0 0 1 2-1.999zm14.141-4.686l2.828 2.828a2 2 0 1 1-2.828 2.828l-2.828-2.828a2 2 0 1 1 2.828-2.828z"/></svg><svg width="102" height="102" viewBox="-1 -1 102 102" id="clear-night" y="204" xmlns="http://www.w3.org/2000/svg"><path fill-rule="evenodd" clip-rule="evenodd" d="M50 61.998c-6.627 0-11.999-5.372-11.999-11.998 0-6.627 5.372-11.999 11.999-11.999.755 0 1.491.078 2.207.212a7.988 7.988 0 0 0-.208 1.788 8 8 0 0 0 8 7.999c.615 0 1.212-.076 1.788-.208.133.717.211 1.452.211 2.208 0 6.626-5.372 11.998-11.998 11.998zm-1.788-19.79c-3.556.813-6.211 3.989-6.211 7.792A8 8 0 0 0 50 57.999c3.802 0 6.978-2.655 7.791-6.211a11.998 11.998 0 0 1-9.579-9.58z"/></svg><svg width="102" height="102" viewBox="-1 -1 102 102" id="cloudy" y="102" xmlns="http://www.w3.org/2000/svg"><path fill-rule="evenodd" clip-rule="evenodd" d="M43.945 65.639c-8.835 0-15.998-7.162-15.998-15.998 0-8.836 7.163-15.998 15.998-15.998 6.004 0 11.229 3.312 13.965 8.203.664-.113 1.338-.205 2.033-.205 6.627 0 11.999 5.373 11.999 12 0 6.625-5.372 11.998-11.999 11.998H43.945zm15.998-4a8 8 0 1 0 0-15.998c-1.6 0-3.082.481-4.333 1.291-1.231-5.316-5.974-9.29-11.665-9.29-6.626 0-11.998 5.372-11.998 11.999 0 6.626 5.372 11.998 11.998 11.998h15.998z"/></svg><svg width="102" height="102" viewBox="-1 -1 102 102" id="fog" x="102" y="102" xmlns="http://www.w3.org/2000/svg"><path fill-rule="evenodd" clip-rule="evenodd" d="M69.998 65.641H30.003a2 2 0 0 1 0-4h39.995a2 2 0 0 1 0 4zm0-8H30.003a2 2 0 0 1 0-4h39.995a2 2 0 0 1 0 4zm-9.999-11.998c-1.601 0-3.083.48-4.333 1.291-1.232-5.317-5.974-9.291-11.665-9.291-6.626 0-11.998 5.373-11.998 12h-4c0-8.835 7.163-15.999 15.998-15.999 6.004 0 11.229 3.312 13.965 8.204.664-.113 1.337-.205 2.033-.205 5.222 0 9.652 3.342 11.301 8h-4.381a7.987 7.987 0 0 0-6.92-4zM30.003 69.639h39.995a2 2 0 0 1 0 4H30.003a2 2 0 0 1 0-4z"/></svg><svg width="102" height="102" viewBox="-1 -1 102 102" id="hail" x="204" xmlns="http://www.w3.org/2000/svg"><path fill-rule="evenodd" clip-rule="evenodd" d="M72.997 71.639a2 2 0 1 1 0-3.998 2 2 0 0 1 0 3.998zm-8.999-6.698V60.56a7.988 7.988 0 0 0 4-6.92 8 8 0 0 0-7.999-7.999c-1.601 0-3.083.48-4.334 1.291-1.231-5.317-5.973-9.29-11.664-9.29-6.627 0-11.999 5.372-11.999 11.998 0 3.55 1.551 6.728 4 8.925v4.916c-4.777-2.768-7.999-7.922-7.999-13.841 0-8.835 7.162-15.997 15.998-15.997 6.004 0 11.229 3.311 13.965 8.203.664-.113 1.337-.205 2.033-.205 6.626 0 11.998 5.372 11.998 11.999 0 5.223-3.342 9.653-7.999 11.301zm-32.995 7.698a2 2 0 1 1 0 3.998 2 2 0 0 1 0-3.998zm9.998-16.998c0-1.104-.104-2 1-2s1 .896 1 2v23.998h-2a4 4 0 0 0-3.999-4v-2c1.543 0 2.937.6 3.999 1.557V55.641zM50 69.639c-1.104 0-1-.895-1-2v-7.998c0-1.105-.104-2 1-2s1 .895 1 2v7.998c0 1.105.104 2-1 2zm0 4a2 2 0 1 1 0 4 2 2 0 0 1 0-4zm7.999-19.998c1.104 0 1 .896 1 2v18.016c1.823-2.434 4.723-4.018 7.999-4.018v2a8 8 0 0 0-7.999 8h-2c0-.273.02-.541.041-.807-.054-.334-.041-.744-.041-1.193V55.641c0-1.104-.104-2 1-2z"/></svg><svg width="102" height="102" viewBox="-1 -1 102 102" id="partly-cloudy-day" x="204" y="102" xmlns="http://www.w3.org/2000/svg"><path fill-rule="evenodd" clip-rule="evenodd" d="M79.941 43.641h-4a2 2 0 0 1 0-3.998h4a2 2 0 1 1 0 3.998zm-7.857-13.312a2 2 0 0 1-2.828-2.827l2.828-2.828a2 2 0 1 1 2.828 2.828l-2.828 2.827zm-2.947 15.607a11.949 11.949 0 0 1 2.806 7.705c0 6.625-5.372 11.998-11.999 11.998H43.946c-8.835 0-15.998-7.162-15.998-15.998s7.163-15.998 15.998-15.998c1.572 0 3.09.232 4.523.654 2.195-2.827 5.618-4.654 9.475-4.654 6.627 0 11.999 5.373 11.999 11.998a11.983 11.983 0 0 1-.806 4.295zm-37.19 3.705c0 6.627 5.371 11.998 11.998 11.998h15.998a8 8 0 0 0 0-15.998c-1.6 0-3.083.482-4.333 1.291-1.231-5.316-5.974-9.289-11.665-9.289-6.627 0-11.998 5.371-11.998 11.998zm25.996-15.998a7.972 7.972 0 0 0-5.662 2.349 16.113 16.113 0 0 1 5.629 5.854c.664-.113 1.337-.205 2.033-.205 2.125 0 4.119.559 5.85 1.527.096-.494.15-1.004.15-1.527a8 8 0 0 0-8-7.998zm0-8a1.999 1.999 0 0 1-1.999-1.999v-3.999a2 2 0 1 1 3.999 0v3.999a1.998 1.998 0 0 1-2 1.999zm-14.14 4.686l-2.827-2.827a2 2 0 0 1 2.827-2.828l2.828 2.828a1.998 1.998 0 1 1-2.828 2.827z"/></svg><svg width="102" height="102" viewBox="-1 -1 102 102" id="partly-cloudy-night" xmlns="http://www.w3.org/2000/svg"><path fill-rule="evenodd" clip-rule="evenodd" d="M69.763 46.758a11.936 11.936 0 0 1 2.179 6.883c0 6.625-5.371 11.998-11.998 11.998H43.946c-8.836 0-15.998-7.162-15.998-15.998s7.162-15.998 15.998-15.998c2.002 0 3.914.375 5.68 1.047 1.635-4.682 6.078-8.047 11.318-8.047.755 0 1.491.078 2.207.212a8.04 8.04 0 0 0-.207 1.788 7.998 7.998 0 0 0 7.998 7.999 7.99 7.99 0 0 0 1.789-.208c.133.717.211 1.453.211 2.208a11.952 11.952 0 0 1-3.179 8.116zm-37.816 2.883c0 6.627 5.371 11.998 11.998 11.998h15.998a8 8 0 0 0 0-15.998c-1.6 0-3.083.482-4.334 1.291-1.231-5.316-5.973-9.29-11.664-9.29-6.627 0-11.998 5.372-11.998 11.999zm19.549-14.096h0zm7.659-4.695c-2.9.664-5.175 2.91-5.925 5.775a16.08 16.08 0 0 1 4.68 5.22c.664-.113 1.337-.205 2.033-.205 2.618 0 5.033.85 7.005 2.271a7.993 7.993 0 0 0 1.786-3.482 11.997 11.997 0 0 1-9.579-9.579z"/></svg><svg width="102" height="102" viewBox="-1 -1 102 102" id="rain" x="102" y="204" xmlns="http://www.w3.org/2000/svg"><path fill-rule="evenodd" clip-rule="evenodd" d="M63.943 64.941V60.56a7.988 7.988 0 0 0 4-6.92 8 8 0 0 0-8-7.999c-1.6 0-3.082.48-4.333 1.291-1.231-5.317-5.974-9.29-11.665-9.29-6.626 0-11.998 5.372-11.998 11.998 0 3.55 1.551 6.728 4 8.925v4.916c-4.777-2.768-8-7.922-8-13.841 0-8.835 7.163-15.997 15.998-15.997 6.004 0 11.229 3.311 13.965 8.203.664-.113 1.338-.205 2.033-.205 6.627 0 11.999 5.372 11.999 11.999 0 5.223-3.341 9.653-7.999 11.301zm-21.997-11.3a2 2 0 0 1 1.999 2v15.998a2 2 0 1 1-3.999 0V55.641a2 2 0 0 1 2-2zm7.999 4a2 2 0 0 1 2 2v15.998a2 2 0 0 1-4 0V59.641a2 2 0 0 1 2-2zm7.999-4a2 2 0 0 1 1.999 2v15.998a2 2 0 1 1-3.999 0V55.641a2 2 0 0 1 2-2z"/></svg><svg width="102" height="102" viewBox="-1 -1 102 102" id="sleet" x="204" y="204" xmlns="http://www.w3.org/2000/svg"><path fill-rule="evenodd" clip-rule="evenodd" d="M63.999 64.943v-4.381a7.993 7.993 0 0 0 3.999-6.922 8 8 0 0 0-7.999-7.998c-1.6 0-3.083.48-4.333 1.291-1.231-5.317-5.974-9.291-11.665-9.291-6.627 0-11.998 5.373-11.998 12 0 3.549 1.55 6.729 4 8.924v4.916c-4.777-2.768-8-7.922-8-13.84 0-8.836 7.163-15.999 15.998-15.999 6.004 0 11.229 3.312 13.965 8.204.664-.113 1.337-.205 2.033-.205 6.627 0 11.999 5.373 11.999 11.998 0 5.223-3.343 9.653-7.999 11.303zm-21.998-7.302a2 2 0 1 1 0 4 2 2 0 0 1 0-4zm0 8a2 2 0 1 1 .001 3.999 2 2 0 0 1-.001-3.999zm8-4a2 2 0 1 1 0 4 2 2 0 0 1 0-4zm0 7.998A2 2 0 1 1 50 73.64 2 2 0 0 1 50 69.64zm7.998-11.998a2 2 0 1 1 0 4 2 2 0 0 1 0-4zm0 8A2 2 0 1 1 58 69.64 2 2 0 0 1 58 65.64z"/></svg><svg width="102" height="102" viewBox="-1 -1 102 102" id="snow" x="306" xmlns="http://www.w3.org/2000/svg"><path fill-rule="evenodd" clip-rule="evenodd" d="M59.659 46.733l-1.958 1.13A8.02 8.02 0 0 1 57.999 50c0 .742-.109 1.456-.298 2.138l1.958 1.13a2 2 0 0 1-2 3.463l-1.954-1.128A7.987 7.987 0 0 1 52 57.737v2.262a2 2 0 0 1-4 0v-2.262a7.982 7.982 0 0 1-3.705-2.134l-1.954 1.128a2 2 0 1 1-2-3.463l1.958-1.13A7.982 7.982 0 0 1 42.001 50c0-.741.108-1.455.298-2.137l-1.958-1.13a2 2 0 0 1 2-3.463l1.954 1.128A7.982 7.982 0 0 1 48 42.264v-2.262a2 2 0 0 1 4 0v2.262a7.987 7.987 0 0 1 3.705 2.134l1.954-1.128a2 2 0 1 1 2 3.463zM50 46.001a4 4 0 1 0 0 8 4 4 0 0 0 0-8z"/></svg><svg width="102" height="102" viewBox="-1 -1 102 102" id="thunderstorm" x="306" y="102" xmlns="http://www.w3.org/2000/svg"><path fill-rule="evenodd" clip-rule="evenodd" d="M59.999 65.641h-1.062l3.585-4.412c3.181-1.057 5.477-4.053 5.477-7.588A7.998 7.998 0 0 0 60 45.643c-1.601 0-3.083.48-4.333 1.29-1.232-5.316-5.974-9.29-11.665-9.29-6.626 0-11.998 5.372-11.998 12 0 5.446 3.632 10.038 8.604 11.504l-1.349 3.777c-6.52-2.021-11.255-8.098-11.255-15.282 0-8.835 7.163-15.999 15.998-15.999 6.004 0 11.229 3.312 13.965 8.204.664-.114 1.337-.205 2.033-.205 6.627 0 11.999 5.371 11.999 11.998s-5.373 12.001-12 12.001zm-11.998-14h9.998l-5.999 10h6.999L46.001 77.639l3.6-11.998h-6.6l5-14z"/></svg><svg width="102" height="102" viewBox="-1 -1 102 102" id="tornado" x="306" y="204" xmlns="http://www.w3.org/2000/svg"><path fill-rule="evenodd" clip-rule="evenodd" d="M68.866 36.459H30.871a2 2 0 0 1 0-3.999h37.995a2 2 0 0 1 0 3.999zm-35.995 4h29.996a2 2 0 0 1 0 3.999H32.871a2 2 0 0 1 0-3.999zm11.998 7.999h21.998a2 2 0 0 1 0 3.999H44.869a2 2 0 0 1 0-3.999zm2 15.998h5.999a2 2 0 0 1 0 3.999h-5.999a2 2 0 0 1 0-3.999zm1-6a2 2 0 0 1 2-1.999h13.998a2 2 0 0 1 0 3.999H49.869a2 2 0 0 1-2-2z"/></svg><svg width="102" height="102" viewBox="-1 -1 102 102" id="wind" y="306" xmlns="http://www.w3.org/2000/svg"><path fill-rule="evenodd" clip-rule="evenodd" d="M65.999 52h-3a2 2 0 1 1 0-3.999h3a2 2 0 0 0 0-3.999 2 2 0 1 1 .402-3.959c3.121.211 5.596 2.783 5.596 5.959A5.998 5.998 0 0 1 65.999 52zm-10-3.999H34.002a2 2 0 0 0 0 3.999h21.997a6 6 0 0 1 6 6c0 3.176-2.475 5.748-5.596 5.959A2 2 0 1 0 55.999 56H34.002a6 6 0 0 1-5.999-5.999c0-3.175 2.475-5.747 5.596-5.959a2.07 2.07 0 0 1 .403-.04h21.997a2 2 0 0 0 0-4 2 2 0 1 1 .404-3.959c3.121.211 5.596 2.783 5.596 5.959a6 6 0 0 1-6 5.999z"/></svg></svg>